# generated by prepare_models.py
# origin 538709.392089 6583185.267375 54.240000
v 3.812901 9.187375 0.082317
v 5.161244 7.501946 0.090094
v 3.644359 6.237874 0.104503
v 4.487073 8.260389 0.289055
v 3.054459 7.080589 0.426006
v -0.906297 5.647975 0.477014
v 2.296016 8.007574 0.524734
v -1.074840 -9.099525 0.528751
v 1.453302 -7.161283 0.539417
v -5.794041 1.771488 0.618382
v 8.195017 0.086059 0.633700
v -8.237911 -0.251026 0.640094
v 0.526316 -5.981483 0.711352
v -2.507455 -7.414097 0.761556
v 4.318530 -2.947711 0.883104
v -0.316397 -5.223040 1.183275
v 3.644359 -2.104997 1.270621
v -0.316397 -5.223040 3.376729
v -1.243383 -4.043240 3.422198
v 2.801645 -0.925197 3.449698
v -4.192883 -0.166755 3.480399
v 0.610588 3.625459 3.490805
v -0.906297 5.647975 3.502005
v 3.644359 -2.104997 3.506586
v -5.794041 1.771488 3.507927
v -6.721026 -2.273540 4.008465
v -7.226655 -2.779168 4.126018
v -2.423183 4.383902 4.146508
v -4.192883 2.951288 4.249553
v -3.265898 3.709731 4.441557
v -2.338912 2.361388 5.015196
v 1.621845 -3.706155 5.056871
v -0.063583 -1.515097 5.063756
v -2.338912 2.361388 5.556305
v -0.906297 0.423145 5.572861
v -4.867055 -4.548869 5.963601
v -5.372684 -4.885954 6.029583
v -5.794041 -4.380326 6.860255
v 5.245516 4.131088 6.865976
l 1 4
l 22 35
l 1 7
l 10 12
l 23 28
l 7 39
l 8 9
l 23 34
l 5 7
l 10 21
l 8 14
l 32 33
l 18 19
l 14 16
l 24 32
l 18 32
l 34 35
l 2 3
l 11 15
l 2 4
l 25 29
l 16 17
l 14 36
l 16 19
l 25 34
l 15 17
l 36 37
l 4 5
l 26 27
l 9 13
l 19 33
l 37 38
l 6 7
l 38 39
l 20 24
l 11 39
l 6 22
l 20 33
l 27 38
l 28 30
l 28 31
l 3 5
l 21 25
l 12 26
l 13 15
l 17 20
l 29 30
l 21 35
l 29 31
l 22 23
l 30 31
