# generated by prepare_models.py
# origin 536088.930365 6581471.585502 52.880000
v 2.351540 -6.848025 0.063512
v -5.847456 -4.332424 0.121660
v -10.226464 -3.587061 0.128911
v 7.103232 -8.059240 0.131327
v 10.271025 3.680230 0.544225
v -7.151841 8.059240 0.559909
v 7.196402 4.332423 0.583598
v -4.170388 7.220707 0.662165
v 2.537881 -6.289003 0.790345
v -5.940626 -2.934868 1.713563
v 3.842266 -5.450469 1.724355
v -5.847456 -4.332424 2.418340
v 2.537881 -6.289003 2.456663
v -2.400150 6.754853 2.471570
v 5.332993 4.891445 2.484225
v 7.848595 -4.984617 2.965696
v 9.525662 1.164629 2.971440
v -7.804034 5.450468 3.180731
v -9.201590 -0.326096 3.253751
v -3.890877 -1.164630 3.687334
v 4.121778 1.723652 3.701030
v 2.631051 -2.748528 3.718298
v -2.772832 3.493889 3.718477
v -5.847456 1.909993 5.944312
v 5.798845 -1.164630 6.000433
l 1 4
l 18 24
l 11 22
l 8 14
l 5 7
l 1 9
l 8 23
l 1 11
l 12 13
l 19 24
l 5 17
l 12 20
l 20 22
l 2 3
l 6 8
l 21 23
l 13 22
l 2 10
l 6 18
l 9 11
l 14 15
l 14 23
l 24 25
l 15 21
l 3 19
l 16 17
l 10 12
l 16 25
l 7 15
l 10 20
l 7 21
l 4 16
l 17 25
l 11 13
l 18 19
