# generated by prepare_models.py
# origin 536088.930365 6581471.585502 52.880000
v -10.319635 -3.587061 0.245252
v -5.940626 -4.518765 0.308152
v 7.103232 -8.059240 0.317345
v 2.444710 -6.382173 0.368459
v 5.705674 4.798275 0.684789
v 10.271025 3.587060 0.776366
v -7.151841 8.059240 0.789008
v 6.357869 4.518764 0.844552
v -3.518195 7.127537 0.898499
v -2.679661 6.848023 1.089526
v -7.151841 8.059240 1.300543
v 10.271025 3.587060 1.301300
v -3.518195 7.127537 1.513180
v -2.772832 5.636808 1.694849
v -3.611366 5.729979 2.237727
v -5.940626 -4.518765 2.438752
v 5.705674 4.798275 2.513322
v 2.444710 -6.382173 2.557795
v -3.518195 5.170957 2.719792
v 5.519334 2.375844 2.773762
v -2.679661 6.848023 2.791514
v -5.008922 -1.350971 2.939133
v -2.772832 5.636808 2.988622
v 9.618832 1.350970 3.023481
v 8.034936 -4.611935 3.152960
v -9.294760 -0.046585 3.248313
v -7.804034 5.077786 3.482647
v -5.008922 -1.350971 3.532219
v -1.841127 3.121208 3.738786
v 2.910562 1.909993 3.770749
v -2.772832 -1.350971 3.806803
v 3.749096 -2.282676 4.057509
v -6.220137 1.816822 5.979452
v 5.892015 -1.164630 6.016422
v -4.449899 1.071459 6.592746
v -3.331855 1.350970 6.594853
v -4.263559 1.630481 6.604445
v -3.704536 0.698778 6.691875
l 1 2
l 19 29
l 22 28
l 25 34
l 22 31
l 16 18
l 26 27
l 16 22
l 8 12
l 13 15
l 3 25
l 16 28
l 16 31
l 8 20
l 26 33
l 6 8
l 1 26
l 23 29
l 20 30
l 6 12
l 17 20
l 17 21
l 27 33
l 6 24
l 14 15
l 21 23
l 17 30
l 15 19
l 9 10
l 9 13
l 21 29
l 9 15
l 28 32
l 33 34
l 10 11
l 24 25
l 7 9
l 10 14
l 4 32
l 7 11
l 2 22
l 10 13
l 2 28
l 18 32
l 35 37
l 35 38
l 36 37
l 24 34
l 36 38
l 5 6
l 5 8
l 29 30
l 7 27
l 3 4
l 19 23
l 5 20
