# generated by prepare_models.py
# origin 537271.187182 6582190.173452 53.530000
v -0.523552 -5.784010 0.037363
v -5.559630 2.792280 0.191282
v -4.113627 1.595588 0.219402
v -1.770106 4.138559 0.224665
v -3.166247 5.385113 0.226925
v 5.709216 0.997243 0.255952
v -1.271485 4.487594 0.336021
v -5.709216 -0.897519 0.786386
v -0.822725 4.138559 0.805863
v 0.723001 5.784010 0.864909
v -3.265971 1.545726 0.873572
v -4.313076 4.088697 1.826621
v -1.720244 1.695313 1.836445
v -2.567901 -3.739661 2.946456
v -4.013903 -2.343521 2.983906
v 2.069279 4.088697 3.018498
v 3.315834 2.592831 3.104143
v -2.368452 -2.044348 3.871000
v 1.919693 2.393383 3.873477
l 8 15
l 1 6
l 9 10
l 1 14
l 2 3
l 10 16
l 11 13
l 2 12
l 12 13
l 3 11
l 14 15
l 14 18
l 15 18
l 4 5
l 16 17
l 4 7
l 16 19
l 17 19
l 18 19
l 4 13
l 5 12
l 6 17
l 7 9
l 8 11
