# generated by prepare_models.py
# origin 537271.187182 6582190.173452 53.530000
v -1.770106 4.238283 0.181636
v -4.163490 1.545726 0.183997
v -3.166247 5.335250 0.184949
v -0.573415 -5.734147 0.203288
v -5.509768 2.792280 0.227587
v 5.609492 0.897518 0.340196
v -3.864317 1.246553 0.420823
v -0.573415 -5.734147 0.605570
v -0.872587 4.138559 0.706845
v -5.709216 -0.897519 0.874881
v 0.673139 5.784010 0.918303
v -1.770106 1.745175 1.868182
v -4.313076 4.088697 1.868283
v -4.113627 -2.343521 2.679980
v -2.518039 -3.839386 2.839477
v -4.113627 -2.343521 2.941612
v -2.518039 -2.193935 3.656895
v 2.916936 3.540213 3.863103
v -2.518039 -2.193935 3.956007
l 1 3
l 5 13
l 1 9
l 1 12
l 12 13
l 2 5
l 6 18
l 2 7
l 7 10
l 14 15
l 2 12
l 15 16
l 15 17
l 9 11
l 15 19
l 16 19
l 17 18
l 3 13
l 18 19
l 4 6
l 4 8
l 10 14
l 10 16
l 4 15
l 11 18
