# generated by prepare_models.py
# origin 542393.470000 6589891.615000 19.250000
v -0.084160 -7.001440 1.733700
v -2.358290 -6.865299 3.316500
v -1.304319 -8.068780 1.733700
v 5.346880 0.786341 1.772000
v 4.721821 4.150760 4.690300
v 1.216140 1.084161 4.690300
v 6.660780 1.935691 1.772000
v -7.144319 -1.400310 3.334000
v -4.872979 -1.596660 1.687400
v -4.724399 0.716520 3.334000
v -6.061710 -2.636500 1.687400
v -8.288560 -0.093740 1.579600
v -1.304319 -8.068780 0.100900
v 3.150001 -13.155000 0.104800
v 7.850540 -9.063700 6.381200
v -8.288560 -0.093740 0.094800
v -12.640000 4.875001 0.091000
v -7.936179 8.983401 6.381200
v -6.061710 -2.636500 0.096800
v -3.428289 -5.643500 0.099100
v -2.215050 -4.582219 1.722600
v 1.284699 -9.291254 1.294648
v 3.493598 -11.609325 1.473765
v -3.428289 -5.643500 1.722600
v -0.164079 -5.211949 3.513000
v 2.712020 6.446771 1.664600
v 2.152881 5.957660 1.664600
v 1.558521 6.637111 0.769500
v 12.640000 -4.895000 0.020100
v -3.160000 13.155000 0.028200
v 2.712020 6.446771 0.025200
v 6.660780 1.935691 0.023200
v 2.152881 5.957660 0.769500
v 3.575157 -9.380718 2.987940
v 2.107186 -10.560046 2.974139
v 11.739294 -4.812149 0.635515
v 11.093245 -5.433899 1.601694
v 9.185446 -5.350781 2.979079
v 9.343699 -3.401403 1.633814
v 9.896593 -2.808315 0.677566
v 6.940981 0.614813 0.711635
v 6.388087 0.021725 1.667883
v 6.226832 -1.897653 3.013148
v 8.137633 -2.010771 1.635763
v 8.783682 -1.389021 0.669584
v 1.617415 6.962302 0.528185
v 0.971365 6.340552 1.494364
v -0.936436 6.423671 2.871749
v -0.778182 8.373050 1.526484
v -0.225287 8.966136 0.570236
v -3.442000 12.417376 0.684803
v -3.994895 11.824288 1.641051
v -4.153148 9.874909 2.986316
v -2.245348 9.791793 1.608931
v -1.599299 10.413541 0.642752
v -7.238863 0.794504 1.592845
v -11.293412 4.874818 1.285088
v -8.913944 4.759578 2.924177
v -9.195433 2.471372 1.148378
v -9.647442 2.138321 0.622707
v -11.692571 4.454442 0.596510
v 9.642439 -4.815768 2.760625
v 10.980477 -5.039940 1.848965
v 9.737126 -3.416990 1.938728
v 6.749109 -0.054841 1.864258
v 7.992459 -1.677791 1.774495
v 6.654423 -1.453619 2.686155
v -0.448994 6.836194 2.893152
v 0.889041 6.612023 1.981492
v -0.354308 8.234973 2.071255
v -3.745268 10.301732 2.633318
v -2.407231 10.077561 1.721658
v -3.650580 11.700511 1.811421
v 1.168671 -10.203580 0.637489
v 2.408699 -11.794602 0.614073
l 1 25
l 2 3
l 2 24
l 3 1
l 4 6
l 4 7
l 4 32
l 5 6
l 5 26
l 6 28
l 7 5
l 8 10
l 8 11
l 8 12
l 9 10
l 11 9
l 13 1
l 13 14
l 14 15
l 15 18
l 15 29
l 16 17
l 16 56
l 17 18
l 19 9
l 19 20
l 20 21
l 21 24
l 22 74
l 23 75
l 25 2
l 25 21
l 26 27
l 28 27
l 28 33
l 29 32
l 30 18
l 30 31
l 31 33
l 34 22
l 34 23
l 34 35
l 35 22
l 35 23
l 36 37
l 36 40
l 37 38
l 38 62
l 39 38
l 39 40
l 39 64
l 41 42
l 41 45
l 43 42
l 43 67
l 44 43
l 44 45
l 46 47
l 46 50
l 47 48
l 48 68
l 49 48
l 49 50
l 51 52
l 51 55
l 53 52
l 53 71
l 54 53
l 54 55
l 56 10
l 56 12
l 57 58
l 58 59
l 60 59
l 61 57
l 61 60
l 62 64
l 63 37
l 63 62
l 63 64
l 65 42
l 65 66
l 65 67
l 66 44
l 66 67
l 68 69
l 68 70
l 69 47
l 69 70
l 70 49
l 71 72
l 71 73
l 72 54
l 72 73
l 73 52
l 75 74
