# generated by prepare_models.py
# origin 547602.055000 6590702.207934 50.530000
v -0.463495 1.086553 12.690040
v 0.482342 1.033320 12.650084
v -1.136260 0.331581 12.620104
v 1.075507 0.166702 12.690040
v -1.210577 -0.603624 12.670026
v 1.000218 -0.755213 12.700019
v -0.594552 -1.411437 12.550074
v 0.400757 -1.505086 12.510036
v -0.814371 2.140520 12.090105
v 0.974768 1.998907 12.130468
v -2.202652 0.807870 12.053016
v -2.190653 -0.881190 11.996060
v -1.328106 -1.990390 12.023216
v 0.568206 -2.324774 11.992531
v 1.803418 -1.148108 12.091747
v 2.001725 0.318285 12.123389
v -2.459201 -3.277002 9.404523
v -1.993876 -3.323993 9.982127
v -1.178612 -3.355342 10.367656
v -2.689427 -3.246658 8.805752
v -2.869337 -3.226588 8.187911
v 0.866381 -3.533014 10.271540
v 2.093703 -3.677842 8.166121
v -0.192165 -3.422663 10.534268
v 1.576650 -3.612100 9.673746
v 1.853588 -3.654263 9.155544
v 2.031415 -3.666089 8.655883
v 2.080513 -3.305164 8.646334
v 1.902686 -3.293337 9.145995
v 1.625748 -3.251175 9.664197
v -0.143067 -3.061738 10.524719
v 2.142800 -3.316917 8.156572
v 0.915479 -3.172089 10.261991
v -2.820239 -2.865663 8.178363
v -2.640330 -2.885733 8.796203
v -1.129515 -2.994417 10.358107
v -1.944779 -2.963068 9.972578
v -2.410103 -2.916077 9.394975
v -1.776293 3.616045 9.426959
v -1.310969 3.569054 10.004563
v -0.495705 3.537705 10.390091
v -2.006520 3.646389 8.828187
v -2.186430 3.666459 8.210347
v 1.549289 3.360034 10.293975
v 2.776610 3.215205 8.188557
v 0.490743 3.470384 10.556704
v 2.259558 3.280947 9.696181
v 2.536495 3.238785 9.177980
v 2.714322 3.226958 8.678319
v 2.665224 2.866033 8.657867
v 2.487397 2.877860 9.157529
v 2.210460 2.920022 9.675731
v 0.441645 3.109458 10.536252
v 2.727512 2.854280 8.168106
v 1.500191 2.999108 10.273524
v -2.235527 3.305534 8.189896
v -2.055617 3.285463 8.807736
v -0.544803 3.176780 10.369639
v -1.360067 3.208129 9.984112
v -1.825391 3.255120 9.406507
v -7.716852 3.758441 0.435239
v -7.748143 3.547235 0.812851
v -7.780487 3.327760 1.220854
v -7.826814 2.849883 1.609282
v -7.874240 2.386378 1.992095
v -7.907697 1.707461 2.355075
v -7.863995 0.854175 2.546302
v -7.854349 0.160051 2.443483
v -7.912799 -0.724106 2.165436
v -7.940033 -1.238149 1.765100
v -7.933547 -1.679929 1.257734
v -7.939764 -1.902927 0.938521
v -7.951586 -2.053993 0.471136
v -3.690052 -2.381184 0.495751
v -3.678230 -2.230119 0.963136
v -3.672013 -2.007121 1.282348
v -3.678500 -1.565341 1.789714
v -3.651265 -1.051297 2.190051
v -3.592816 -0.167141 2.468098
v -3.602461 0.526984 2.570917
v -3.646164 1.380270 2.379689
v -3.612706 2.059186 2.016709
v -3.565280 2.522691 1.633897
v -3.518953 3.000569 1.245469
v -3.486609 3.220043 0.837466
v -3.455318 3.431249 0.459853
v -7.217247 -2.941109 0.464759
v -6.671661 -2.981351 0.902856
v -5.937405 -3.019617 1.109635
v -5.293323 -3.080305 0.897643
v -4.878456 -3.119271 0.522663
v -4.883905 -2.461050 0.512312
v -5.298772 -2.422083 0.887292
v -5.942854 -2.361395 1.099284
v -6.677110 -2.323130 0.892505
v -7.222696 -2.282888 0.454408
v -6.596768 4.257934 0.571195
v -6.051181 4.217690 1.009292
v -5.316925 4.179425 1.216072
v -4.672843 4.118737 1.004079
v -4.257977 4.079771 0.629099
v -4.252528 3.421550 0.639450
v -4.667394 3.460516 1.014431
v -5.311476 3.521204 1.226422
v -6.045732 3.559470 1.019643
v -6.591319 3.599712 0.581546
v 4.658249 2.343274 0.522200
v 5.203835 2.303031 0.960297
v 5.938091 2.264766 1.167076
v 6.582173 2.204078 0.955084
v 6.997040 2.165112 0.580104
v 6.991590 2.823332 0.569753
v 6.576724 2.862299 0.944733
v 5.932642 2.922987 1.156725
v 5.198386 2.961253 0.949946
v 4.652799 3.001495 0.511849
v 4.026871 -3.329326 0.545062
v 4.572458 -3.369568 0.983159
v 5.306714 -3.407834 1.189938
v 5.950795 -3.468522 0.977946
v 6.365662 -3.507488 0.602966
v 6.371111 -4.165710 0.613317
v 5.956244 -4.126743 0.988297
v 5.312162 -4.066055 1.200289
v 4.577906 -4.027789 0.993510
v 4.032320 -3.987547 0.555413
v 7.914249 2.174811 0.460507
v 7.882958 1.963604 0.838120
v 7.850614 1.744131 1.246123
v 7.804287 1.266253 1.634551
v 7.756861 0.802748 2.017363
v 7.723404 0.123831 2.380343
v 7.767106 -0.729455 2.571570
v 7.776751 -1.423579 2.468751
v 7.718302 -2.307736 2.190704
v 7.691068 -2.821779 1.790368
v 7.697553 -3.263559 1.283002
v 7.691337 -3.486557 0.963789
v 7.679515 -3.637623 0.496405
v 3.807981 -3.271431 0.471790
v 3.819803 -3.120365 0.939175
v 3.826020 -2.897367 1.258388
v 3.819534 -2.455587 1.765754
v 3.846768 -1.941544 2.166090
v 3.905218 -1.057387 2.444137
v 3.895573 -0.363263 2.546956
v 3.851869 0.490023 2.355729
v 3.885327 1.168940 1.992748
v 3.932753 1.632445 1.609936
v 3.979081 2.110322 1.221508
v 4.011424 2.329796 0.813505
v 4.042716 2.541002 0.435893
v 0.771031 -2.577031 11.356010
v 2.114384 -1.531490 11.479780
v 2.548805 0.083706 11.505733
v 2.001345 1.773396 11.321650
v 0.578435 2.708291 11.414786
v -1.136159 2.553541 11.235097
v -2.391612 1.366579 11.179917
v -2.769511 -0.519721 11.205861
v -1.977024 -1.965675 11.195070
v -0.484815 -2.732861 11.219035
v -2.867936 3.052438 8.238859
v -2.886571 2.769469 8.990728
v -2.918852 2.227491 9.688537
v -2.915335 1.610765 10.238288
v -2.936248 0.794421 10.569751
v -3.006766 -0.009997 10.608190
v -3.096429 -0.860113 10.311085
v -3.188160 -1.543478 9.745904
v -3.229230 -1.994431 9.160731
v -3.269321 -2.362231 8.222884
v -3.515402 -2.341010 8.235638
v -3.475311 -1.973210 9.173485
v -3.434241 -1.522257 9.758657
v -3.342510 -0.838892 10.323838
v -3.252848 0.011225 10.620943
v -3.182329 0.815642 10.582504
v -3.161417 1.631987 10.251041
v -3.164933 2.248713 9.701290
v -3.132652 2.790691 9.003482
v -3.114018 3.073659 8.251613
v 2.777869 2.449302 8.150954
v 2.759234 2.166333 8.902823
v 2.726954 1.624355 9.600632
v 2.730471 1.007629 10.150383
v 2.709558 0.161285 10.511847
v 2.639039 -0.613133 10.520285
v 2.549377 -1.463249 10.223180
v 2.457646 -2.146614 9.657999
v 2.416576 -2.597567 9.072826
v 2.376485 -2.965367 8.134978
v 2.622566 -2.986589 8.122225
v 2.662658 -2.618789 9.060073
v 2.703728 -2.167835 9.645246
v 2.795459 -1.484471 10.210426
v 2.885121 -0.634354 10.507531
v 2.955640 0.140063 10.499093
v 2.976552 0.986408 10.137630
v 2.973036 1.603134 9.587878
v 3.005316 2.145112 8.890070
v 3.023950 2.428081 8.138201
v 2.825657 -3.815205 7.926404
v -2.729867 3.674116 7.968327
v 3.752914 3.037479 7.983869
v 3.820493 2.128145 8.091776
v -0.661389 0.971096 13.169708
v 0.873908 0.762806 13.209826
v 0.745366 -0.500383 13.091635
v -0.848003 -0.288223 13.100216
v -3.718347 -2.803239 7.935478
v -3.411996 -3.188393 7.995557
l 1 3
l 2 1
l 3 5
l 4 2
l 4 16
l 5 7
l 5 12
l 6 4
l 6 15
l 7 8
l 7 13
l 8 6
l 8 14
l 9 1
l 9 10
l 10 2
l 11 3
l 11 9
l 12 11
l 13 12
l 14 13
l 14 15
l 15 16
l 16 10
l 17 18
l 17 20
l 19 18
l 20 21
l 21 173
l 22 25
l 23 193
l 24 19
l 24 22
l 25 26
l 26 27
l 27 23
l 28 27
l 28 29
l 28 32
l 29 26
l 30 25
l 30 29
l 31 24
l 31 33
l 32 23
l 32 192
l 33 22
l 33 30
l 33 189
l 34 21
l 35 20
l 35 34
l 35 38
l 36 19
l 36 31
l 36 162
l 37 18
l 37 36
l 37 38
l 37 161
l 38 17
l 39 40
l 39 42
l 39 60
l 41 40
l 42 43
l 42 57
l 43 56
l 43 182
l 44 46
l 44 55
l 45 49
l 46 41
l 47 44
l 47 48
l 48 49
l 48 51
l 50 49
l 50 51
l 52 47
l 52 51
l 52 55
l 52 185
l 53 46
l 53 58
l 54 45
l 54 50
l 55 53
l 56 163
l 57 56
l 57 60
l 57 181
l 58 41
l 58 59
l 58 158
l 59 40
l 59 60
l 60 165
l 62 61
l 63 62
l 64 63
l 64 65
l 66 65
l 66 67
l 68 67
l 68 79
l 69 68
l 69 70
l 69 78
l 70 77
l 71 70
l 71 76
l 72 71
l 72 75
l 73 72
l 73 96
l 74 75
l 76 75
l 77 76
l 78 77
l 79 78
l 80 67
l 80 79
l 81 66
l 81 80
l 81 82
l 82 65
l 82 83
l 83 64
l 83 84
l 84 63
l 84 85
l 85 62
l 85 86
l 86 61
l 88 87
l 89 88
l 89 90
l 91 90
l 92 74
l 92 91
l 92 93
l 93 90
l 93 94
l 94 89
l 95 88
l 95 94
l 95 96
l 96 87
l 97 98
l 97 106
l 98 99
l 99 100
l 100 101
l 101 100
l 102 101
l 102 103
l 103 100
l 103 102
l 103 104
l 104 99
l 104 105
l 105 98
l 105 106
l 107 108
l 107 116
l 108 109
l 108 115
l 109 110
l 109 114
l 110 111
l 111 112
l 112 113
l 113 110
l 113 114
l 114 115
l 115 116
l 117 118
l 117 126
l 118 119
l 118 125
l 119 120
l 119 124
l 120 121
l 120 123
l 121 122
l 121 139
l 122 123
l 123 124
l 124 125
l 125 126
l 127 128
l 127 152
l 128 129
l 128 151
l 129 150
l 130 129
l 130 131
l 130 149
l 131 130
l 131 148
l 132 131
l 132 133
l 132 147
l 133 134
l 133 146
l 134 135
l 134 145
l 135 136
l 135 144
l 136 137
l 137 138
l 137 142
l 138 139
l 138 141
l 140 117
l 140 141
l 141 142
l 142 143
l 143 136
l 143 144
l 144 145
l 145 146
l 146 147
l 147 148
l 148 149
l 149 150
l 150 151
l 151 152
l 153 14
l 153 33
l 153 154
l 154 15
l 154 155
l 155 16
l 155 156
l 155 188
l 156 10
l 156 55
l 156 157
l 156 186
l 157 9
l 157 53
l 157 158
l 158 9
l 158 159
l 159 11
l 159 160
l 159 166
l 160 12
l 160 161
l 160 168
l 161 13
l 161 162
l 161 169
l 162 14
l 162 153
l 163 164
l 164 165
l 165 166
l 166 59
l 166 167
l 167 168
l 168 169
l 169 170
l 170 37
l 170 171
l 171 38
l 172 34
l 172 171
l 173 172
l 173 174
l 173 211
l 174 171
l 174 175
l 175 170
l 175 176
l 176 169
l 177 168
l 177 176
l 177 178
l 178 167
l 178 179
l 179 166
l 179 180
l 180 165
l 180 181
l 181 164
l 181 182
l 182 163
l 183 54
l 183 184
l 183 202
l 184 51
l 184 185
l 184 201
l 185 186
l 185 200
l 186 187
l 186 199
l 187 156
l 187 188
l 187 198
l 188 189
l 188 197
l 189 154
l 189 190
l 189 196
l 190 191
l 190 195
l 191 192
l 191 194
l 192 193
l 193 194
l 194 195
l 195 196
l 196 197
l 197 198
l 198 199
l 199 200
l 200 201
l 201 202
l 202 45
l 203 23
l 203 193
l 204 43
l 204 182
l 205 45
l 206 202
l 206 205
l 208 207
l 208 209
l 210 207
l 210 209
l 211 212
l 212 21
