# generated by prepare_models.py
# origin 549989.514838 6595203.971993 32.460000
v -4.140331 5.576628 0.022017
v -1.795613 6.146966 0.035446
v -1.605500 5.196404 0.289300
v 3.844386 6.527190 0.332607
v -3.823477 4.119101 0.433914
v -6.675162 3.358650 0.437008
v -1.352017 -6.020224 0.963510
v 0.675848 -5.576628 1.048403
v 0.929331 -6.527190 1.059627
v -4.900780 -3.105168 1.069389
v 6.632701 -5.196404 1.091997
v -2.239208 -2.408090 1.132872
v -0.338084 -1.267415 1.391984
v -0.528196 -0.380224 2.005421
v 0.675848 -5.576628 2.009939
v -5.281005 -1.647640 2.043113
v 1.563038 -5.449886 2.112570
v 3.527532 -4.942920 2.125980
v 6.379218 -4.245842 2.202743
v 5.301915 0.443595 2.265354
v -0.338084 -1.267415 2.267665
v 6.379218 -4.245842 2.603425
v 3.527532 -4.942920 3.362624
v 1.563038 -5.449886 3.379816
v 1.182814 -3.992359 3.719101
v 3.210678 -3.548763 3.783205
v 0.232253 -3.485393 4.562542
v 5.872252 -2.027864 4.582593
l 1 2
l 1 5
l 5 6
l 23 24
l 23 26
l 24 25
l 11 19
l 14 16
l 25 26
l 14 21
l 27 28
l 12 13
l 7 8
l 15 17
l 2 3
l 7 12
l 15 27
l 6 16
l 17 19
l 8 13
l 3 4
l 17 25
l 18 22
l 18 26
l 9 11
l 9 15
l 13 14
l 20 21
l 20 28
l 10 12
l 21 27
l 10 16
l 22 28
l 4 20
