# generated by prepare_models.py
# origin 543423.427435 6581206.007440 45.530000
v 2.916316 5.912169 0.045236
v 5.196346 3.048876 0.123137
v 0.689311 6.495432 0.167404
v 1.855837 5.010762 0.245317
v -2.067934 4.215403 0.342311
v -0.848383 -6.495432 0.364390
v -6.468920 0.662799 0.370124
v -5.355417 -0.715823 0.373936
v 3.976795 2.306541 0.389423
v 6.415896 -0.662799 0.429257
v 2.492124 4.321451 0.437990
v -4.029819 1.988397 0.514176
v -1.537694 3.897259 0.541850
v -5.355417 -0.715823 0.649805
v -1.113503 3.048876 0.674433
v -2.067934 4.215403 0.738000
v -1.537694 3.897259 0.839756
v -4.294939 0.450703 1.424042
v -0.106048 3.897259 1.427571
v -3.022364 -0.874895 1.455425
v 1.060478 2.412589 1.496317
v 3.976795 2.306541 2.837052
v -3.181436 -3.526092 2.854303
l 1 2
l 1 4
l 15 21
l 22 23
l 1 11
l 4 21
l 10 22
l 7 18
l 4 22
l 8 14
l 2 9
l 8 20
l 8 23
l 5 7
l 9 11
l 12 20
l 5 15
l 16 19
l 13 15
l 13 16
l 3 4
l 3 5
l 6 10
l 18 20
l 19 21
l 3 19
l 15 17
l 14 18
l 15 16
l 14 23
l 4 11
l 6 23
l 7 8
