# generated by prepare_models.py
# origin 543423.427435 6581206.007440 45.530000
v 2.969340 5.912169 0.033945
v 5.249370 2.995852 0.057628
v 1.378622 5.806121 0.123347
v -6.415896 0.715823 0.247903
v -3.658652 2.783756 0.266290
v -2.439101 3.738188 0.268726
v 1.908861 5.063786 0.270462
v 4.241915 2.200493 0.293889
v 6.468920 -0.662799 0.294566
v -0.848383 -6.495432 0.308149
v -5.514489 -0.503727 0.318127
v 0.318143 6.124264 0.360327
v -3.075388 -0.821871 1.414095
v -4.241915 0.503727 1.437796
v 0.000000 3.791212 1.469641
v 1.113502 2.465612 1.481717
v -3.181436 -3.526092 2.778842
v 3.976795 2.306541 2.803365
l 1 2
l 9 18
l 1 7
l 10 17
l 11 13
l 11 17
l 2 8
l 12 15
l 13 14
l 15 16
l 3 7
l 17 18
l 3 12
l 3 16
l 4 5
l 4 11
l 4 14
l 5 6
l 5 13
l 5 14
l 6 12
l 6 15
l 6 16
l 7 8
l 7 18
l 9 10
