# generated by prepare_models.py
# origin 535714.765000 6581692.519054 50.310000
v 2.048315 -10.279782 0.082964
v 7.309838 -11.657799 0.093556
v 8.186758 -9.027038 0.405391
v 2.549413 -8.150118 0.493067
v -4.215402 2.999299 0.603638
v -4.591225 1.496008 0.659000
v -11.606589 8.010273 1.015005
v -12.608783 3.375122 1.122480
v -10.854943 10.891585 1.173344
v -10.604393 12.019054 1.417407
v 8.938404 -8.651215 2.812268
v 0.294475 -3.514967 2.841311
v 1.421944 1.621282 2.874115
v 3.676882 9.638839 2.905805
v -6.595615 3.375122 2.907677
v 12.696637 7.634450 3.001712
v 3.426333 8.761919 3.065661
v -3.964854 10.515760 3.206234
v -10.854943 10.891585 3.717083
v -11.606589 8.010273 3.770015
v 3.050510 -4.266613 4.436152
v 2.424138 -6.772100 4.479058
v -8.474730 7.383901 4.519214
v -8.098907 10.139937 4.523736
v -6.595615 8.260822 4.820779
v 5.180174 5.630060 4.835571
v 1.171396 6.632255 5.028234
v 5.180174 4.627865 5.048642
v 0.920847 5.630060 5.108553
v -8.725279 2.498202 5.140973
v -6.470341 11.142134 5.201309
v 4.303254 -7.273198 5.358808
v 8.186758 8.636645 5.395821
l 1 2
l 1 4
l 32 33
l 9 24
l 11 32
l 22 32
l 12 13
l 23 24
l 12 21
l 16 33
l 17 18
l 5 6
l 2 3
l 17 26
l 5 15
l 10 31
l 7 8
l 18 25
l 13 15
l 18 31
l 7 23
l 25 27
l 19 20
l 19 24
l 26 27
l 26 28
l 13 28
l 3 4
l 27 29
l 14 17
l 20 23
l 28 29
l 6 30
l 21 22
l 14 33
l 8 30
l 11 16
l 9 10
l 30 31
l 15 25
