v 538713.2049902679 6583194.454749027 54.32231654110328
v 538714.5533331634 6583192.769320408 54.33009351673499
v 538713.0364476444 6583191.505248943 54.34450258198157
v 538713.8791617156 6583193.527763287 54.52905453625098
v 538712.4465476276 6583192.347963253 54.666005982784185
v 538708.4857914449 6583190.915349403 54.71701420727149
v 538711.6881047488 6583193.274948994 54.764734401134405
v 538708.317248583 6583176.167849461 54.76875080051795
v 538710.8453905584 6583178.106091419 54.779417170909795
v 538703.598048091 6583187.038862387 54.85838235798255
v 538717.587105632 6583185.353433976 54.87369979801551
v 538701.1541775466 6583185.016348278 54.88009394588843
v 538709.9184049071 6583179.285891453 54.95135249081031
v 538706.8846336604 6583177.853277603 55.001556291011724
v 538713.7106188537 6583182.3196634445 55.12310422840491
v 538709.0756913425 6583180.0443343315 55.42327536526099
v 538713.0364476444 6583183.162377635 55.510620726970586
v 538709.0756913425 6583180.0443343315 57.61672909441367
v 538708.1487056018 6583181.224134365 57.66219843807593
v 538712.1937333347 6583184.342177549 57.68969827773944
v 538705.1992052795 6583185.100619698 57.720398663309965
v 538710.0026763381 6583188.89283363 57.73080527665988
v 538708.4857914449 6583190.915349403 57.74200466158763
v 538713.0364476444 6583183.162377635 57.746585606364164
v 538703.598048091 6583187.038862387 57.747927411226186
v 538702.6710623504 6583182.993834773 58.24846450868026
v 538702.1654342414 6583182.4882063065 58.36601836862937
v 538706.9689058067 6583189.651276508 58.38650755467788
v 538705.1992052795 6583188.21866242 58.48955280962363
v 538706.1261907817 6583188.977105061 58.68155653658286
v 538707.0531772376 6583187.6287624035 59.25519646587745
v 538711.0139334203 6583181.561219851 59.296870602992925
v 538709.3285056056 6583183.752277652 59.30375648918525
v 538707.0531772376 6583187.6287624035 59.796305074123296
v 538708.4857914449 6583185.69051967 59.81286074104682
v 538704.5250338317 6583180.718505779 60.203601016429815
v 538704.0194052459 6583180.381420055 60.26958335819617
v 538703.598048091 6583180.887048641 61.100255383876714
v 538714.6376045943 6583189.398462215 61.105976237682256
l 1 4
l 22 35
l 1 7
l 10 12
l 23 28
l 7 39
l 8 9
l 23 34
l 5 7
l 10 21
l 8 14
l 32 33
l 18 19
l 14 16
l 24 32
l 18 32
l 34 35
l 2 3
l 11 15
l 2 4
l 25 29
l 16 17
l 14 36
l 16 19
l 25 34
l 15 17
l 36 37
l 4 5
l 26 27
l 9 13
l 19 33
l 37 38
l 6 7
l 38 39
l 20 24
l 11 39
l 6 22
l 20 33
l 27 38
l 28 30
l 28 31
l 3 5
l 21 25
l 12 26
l 13 15
l 17 20
l 29 30
l 21 35
l 29 31
l 22 23
l 30 31
