v 536091.2819051793 6581464.737477126 52.94351218051892
v 536083.082909589 6581467.253078284 53.001660087776
v 536078.7039017727 6581467.998441519 53.00891063518506
v 536096.0335969975 6581463.526262106 53.011326530647096
v 536099.2013907483 6581475.265732588 53.42422483272534
v 536081.7785244038 6581479.644742789 53.43990896053296
v 536096.1267676404 6581475.917925419 53.46359799213391
v 536084.7599773457 6581478.806209387 53.54216502017957
v 536091.4682459881 6581465.296499552 53.670344808769045
v 536082.989739423 6581468.650634112 54.59356293983441
v 536092.7726316502 6581466.1350334305 54.60435471839887
v 536083.082909589 6581467.253078284 55.29834029979688
v 536091.4682459881 6581465.296499552 55.33666346378308
v 536086.5302155068 6581478.340355696 55.35156963176709
v 536094.2633581212 6581476.476947846 55.36422465152722
v 536096.778960233 6581466.600885214 55.845696428489504
v 536098.4560275128 6581472.750131788 55.851439991664705
v 536081.1263318112 6581477.035970034 56.06073147959691
v 536079.7287755063 6581471.259406151 56.133751162957964
v 536085.0394883206 6581470.420872511 56.56733412451726
v 536093.0521428635 6581473.309154155 56.58103046722394
v 536091.5614163926 6581468.836974921 56.59829805202466
v 536086.1575331738 6581475.079391779 56.59847719378453
v 536083.082909589 6581473.495495023 58.824312427711305
v 536094.7292099049 6581470.420872511 58.88043258495313
l 1 4
l 18 24
l 11 22
l 8 14
l 5 7
l 1 9
l 8 23
l 1 11
l 12 13
l 19 24
l 5 17
l 12 20
l 20 22
l 2 3
l 6 8
l 21 23
l 13 22
l 2 10
l 6 18
l 9 11
l 14 15
l 14 23
l 24 25
l 15 21
l 3 19
l 16 17
l 10 12
l 16 25
l 7 15
l 10 20
l 7 21
l 4 16
l 17 25
l 11 13
l 18 19
