v 536078.610730653 6581467.998441519 53.12525246448499
v 536082.989739423 6581467.066737475 53.18815205402356
v 536096.0335969975 6581463.526262106 53.19734475917798
v 536091.3750755837 6581465.203329386 53.24845860309583
v 536094.6360397389 6581476.383777441 53.56478879756909
v 536099.2013907483 6581475.172562184 53.65636632747632
v 536081.7785244038 6581479.644742789 53.66900775737744
v 536095.2882342389 6581476.104266228 53.72455237216931
v 536085.4121699383 6581478.713039221 53.778498867225466
v 536086.2507042935 6581478.433525862 53.96952627010327
v 536081.7785244038 6581479.644742789 54.180542686652956
v 536099.2013907483 6581475.172562184 54.18129990406018
v 536085.4121699383 6581478.713039221 54.39318023033124
v 536086.1575331738 6581477.222310843 54.57484946556073
v 536085.3189995339 6581477.315481486 55.117727378082094
v 536082.989739423 6581467.066737475 55.31875191040021
v 536094.6360397389 6581476.383777441 55.39332191057187
v 536091.3750755837 6581465.203329386 55.43779520101529
v 536085.4121699383 6581476.756459059 55.5997921020506
v 536094.44969893 6581473.961346926 55.653762081336794
v 536086.2507042935 6581478.433525862 55.67151443071347
v 536083.9214434674 6581470.2345317025 55.81913260526639
v 536086.1575331738 6581477.222310843 55.86862225241643
v 536098.5491976788 6581472.936472567 55.90348083682042
v 536096.9653010418 6581466.973567309 56.032959917259035
v 536079.6356053402 6581471.538917245 56.12831328965407
v 536081.1263318112 6581476.663288416 56.362646737766084
v 536083.9214434674 6581470.2345317025 56.41221884794217
v 536087.0892379334 6581474.706710162 56.618785718154726
v 536091.8409276059 6581473.495495023 56.650749036741075
v 536086.1575331738 6581470.2345317025 56.686802575063524
v 536092.6794612458 6581469.302826943 56.93750933713895
v 536082.7102284482 6581473.402324619 58.85945151157361
v 536094.8223800709 6581470.420872511 58.89642212696057
v 536084.480465894 6581472.656961383 59.47274611301404
v 536085.5985107472 6581472.936472567 59.47485301799756
v 536084.6668067029 6581473.21598375 59.484445074271974
v 536085.2258291295 6581472.284280481 59.57187483615857
l 1 2
l 19 29
l 22 28
l 25 34
l 22 31
l 16 18
l 26 27
l 16 22
l 8 12
l 13 15
l 3 25
l 16 28
l 16 31
l 8 20
l 26 33
l 6 8
l 1 26
l 23 29
l 20 30
l 6 12
l 17 20
l 17 21
l 27 33
l 6 24
l 14 15
l 21 23
l 17 30
l 15 19
l 9 10
l 9 13
l 21 29
l 9 15
l 28 32
l 33 34
l 10 11
l 24 25
l 7 9
l 10 14
l 4 32
l 7 11
l 2 22
l 10 13
l 2 28
l 18 32
l 35 37
l 35 38
l 36 37
l 24 34
l 36 38
l 5 6
l 5 8
l 29 30
l 7 27
l 3 4
l 19 23
l 5 20
