v 537269.4170762375 6582194.411734934 53.711635944057555
v 537267.0236927345 6582191.719178195 53.71399724166498
v 537268.0209356621 6582195.508702154 53.71494888942346
v 537270.6137677655 6582184.439304705 53.733287688900084
v 537265.6774145439 6582192.965731974 53.757587310482116
v 537276.7966743782 6582191.070970292 53.8701956240426
v 537267.3228656128 6582191.420005317 53.95082330386743
v 537270.6137677655 6582184.439304705 54.13556956927881
v 537270.3145948723 6582194.31201088 54.23684477489099
v 537265.4779659584 6582189.27593338 54.404881116558165
v 537271.8603210524 6582195.95746171 54.44830274264917
v 537269.4170762375 6582191.918626781 55.39818177800283
v 537266.8741062954 6582194.262148733 55.398282964337916
v 537267.0735548809 6582187.829930658 56.20997970979318
v 537268.669143565 6582186.334066267 56.36947679202661
v 537267.0735548809 6582187.829930658 56.47161221187219
v 537268.669143565 6582187.979517098 57.186895367313475
v 537274.1041187122 6582193.713665123 57.39310323875055
v 537268.669143565 6582187.979517098 57.48600673358545
l 1 3
l 5 13
l 1 9
l 1 12
l 12 13
l 2 5
l 6 18
l 2 7
l 7 10
l 14 15
l 2 12
l 15 16
l 15 17
l 9 11
l 15 19
l 16 19
l 17 18
l 3 13
l 18 19
l 4 6
l 4 8
l 10 14
l 10 16
l 4 15
l 11 18
