v 537270.6636299118 6582184.38944232 53.56736337821588
v 537265.627552636 6582192.965731974 53.721282121349425
v 537267.0735548809 6582191.7690403415 53.74940156619653
v 537269.4170762375 6582194.31201088 53.75466489474878
v 537268.0209356621 6582195.558564539 53.75692546050653
v 537276.896398671 6582191.170694585 53.78595161120996
v 537269.9156976417 6582194.661045904 53.8660212723504
v 537265.4779659584 6582189.27593338 54.31638598125085
v 537270.3644570187 6582194.31201088 54.33586263339624
v 537271.9101831988 6582195.95746171 54.39490914027795
v 537267.9212113693 6582191.719178195 54.40357207934961
v 537266.8741062954 6582194.262148733 55.35662072579965
v 537269.4669383839 6582191.868764634 55.36644540410146
v 537268.6192814186 6582186.43379056 56.476455625701995
v 537267.1732791737 6582187.829930658 56.51390635650262
v 537273.2564612702 6582194.262148733 56.54849767367944
v 537274.5030158833 6582192.766283388 56.634142634082885
v 537268.8187300041 6582188.129103537 57.40099990050897
v 537273.106874831 6582192.566834803 57.403477188755126
l 8 15
l 1 6
l 9 10
l 1 14
l 2 3
l 10 16
l 11 13
l 2 12
l 12 13
l 3 11
l 14 15
l 14 18
l 15 18
l 4 5
l 16 17
l 4 7
l 16 19
l 17 19
l 18 19
l 4 13
l 5 12
l 6 17
l 7 9
l 8 11
