v 542393.38583992 6589884.613559856 20.983699798583984
v 542391.1117100525 6589884.749700203 22.566500186920166
v 542392.1656803894 6589883.546219959 20.983699798583984
v 542398.8168797302 6589892.401340141 21.021999835968018
v 542398.1918206024 6589895.765759124 23.94029998779297
v 542394.6861395645 6589892.699160232 23.94029998779297
v 542400.1307797241 6589893.550690307 21.021999835968018
v 542386.3256802368 6589890.214689865 22.58400011062622
v 542388.5970201301 6589890.018339767 20.937399864196777
v 542388.7456002044 6589892.331519737 22.58400011062622
v 542387.4082898903 6589888.978500023 20.937399864196777
v 542385.1814398575 6589891.521259918 20.829599857330322
v 542392.1656803894 6589883.546219959 19.350899934768677
v 542396.6200003433 6589878.4599999925 19.35479998588562
v 542401.3205399322 6589882.551299944 25.631199836730957
v 542385.1814398575 6589891.521259918 19.344799995422363
v 542380.829999994 6589896.490000381 19.341000080108643
v 542385.5338201332 6589900.598400726 25.631199836730957
v 542387.4082898903 6589888.978500023 19.346800088882446
v 542390.0417103576 6589885.971500053 19.34910011291504
v 542391.2549500274 6589887.032780304 20.972599983215332
v 542394.7546990662 6589882.323745555 20.544647693634033
v 542396.9635976715 6589880.005674963 20.72376537322998
v 542390.0417103576 6589885.971500053 20.972599983215332
v 542393.305920105 6589886.403050079 22.763000011444092
v 542396.1820196914 6589898.0617700955 20.914599895477295
v 542395.6228804397 6589897.572659149 20.914599895477295
v 542395.0285200882 6589898.252110138 20.019500017166138
v 542406.1099991607 6589886.719999923 19.270100116729736
v 542390.3099999237 6589904.76999916 19.278199911117554
v 542396.1820196914 6589898.0617700955 19.27519989013672
v 542400.1307797241 6589893.550690307 19.273200035095215
v 542395.6228804397 6589897.572659149 20.019500017166138
v 542397.0451569366 6589882.234281673 22.237940311431885
v 542395.5771851349 6589881.0549532315 22.224138736724854
v 542405.2092938232 6589886.80285038 19.885514736175537
v 542404.5632443237 6589886.1811009785 20.851693630218506
v 542402.6554455566 6589886.26421894 22.229079246520996
v 542402.8136982727 6589888.213596954 20.883814334869385
v 542403.366592865 6589888.80668415 19.927566051483154
v 542400.4109806824 6589892.229812278 19.96163511276245
v 542399.8580860901 6589891.636724128 20.91788339614868
v 542399.6968312073 6589889.717346801 22.263148307800293
v 542401.6076321411 6589889.60422863 20.885762691497803
v 542402.2536816406 6589890.225978508 19.919583797454834
v 542395.0874142456 6589898.577301635 19.77818512916565
v 542394.4413647461 6589897.9555517575 20.744364261627197
v 542392.5335640716 6589898.038670196 22.12174940109253
v 542392.6918177414 6589899.9880491635 20.776484489440918
v 542393.2447123337 6589900.581135406 19.820236444473267
v 542390.027999382 6589904.032375946 19.934803247451782
v 542389.4751047897 6589903.439287796 20.891051292419434
v 542389.31685112 6589901.489908828 22.236316204071045
v 542391.2246517944 6589901.406792297 20.858931064605713
v 542391.8707003403 6589902.028540268 19.892751932144165
v 542386.2311363029 6589892.409503593 20.84284496307373
v 542382.1765870857 6589896.489817276 20.53508758544922
v 542384.5560552692 6589896.374577637 22.174177169799805
v 542384.2745666313 6589894.086372032 20.398377895355225
v 542383.8225579071 6589893.75332035 19.87270736694336
v 542381.7774289655 6589896.069441452 19.8465096950531
v 542403.1124386596 6589886.799231186 22.01062536239624
v 542404.4504761505 6589886.575060024 21.098965167999268
v 542403.2071251678 6589888.198009147 21.18872833251953
v 542400.2191090393 6589891.560158386 21.1142578125
v 542401.4624581146 6589889.937208786 21.024494647979736
v 542400.1244225311 6589890.161380424 21.93615484237671
v 542393.0210051346 6589898.451193466 22.143152236938477
v 542394.3590407181 6589898.227022781 21.231492042541504
v 542393.1156916427 6589899.849972381 21.32125473022461
v 542389.724731903 6589901.916731491 21.883318424224854
v 542391.0627684402 6589901.692560806 20.97165822982788
v 542389.8194193649 6589903.315510406 21.061420917510986
v 542394.6386706524 6589881.411419266 19.887488976760654
v 542395.8786984446 6589879.8203976555 19.864073378380485
l 1 25
l 2 3
l 2 24
l 3 1
l 4 6
l 4 7
l 4 32
l 5 6
l 5 26
l 6 28
l 7 5
l 8 10
l 8 11
l 8 12
l 9 10
l 11 9
l 13 1
l 13 14
l 14 15
l 15 18
l 15 29
l 16 17
l 16 56
l 17 18
l 19 9
l 19 20
l 20 21
l 21 24
l 22 74
l 23 75
l 25 2
l 25 21
l 26 27
l 28 27
l 28 33
l 29 32
l 30 18
l 30 31
l 31 33
l 34 22
l 34 23
l 34 35
l 35 22
l 35 23
l 36 37
l 36 40
l 37 38
l 38 62
l 39 38
l 39 40
l 39 64
l 41 42
l 41 45
l 43 42
l 43 67
l 44 43
l 44 45
l 46 47
l 46 50
l 47 48
l 48 68
l 49 48
l 49 50
l 51 52
l 51 55
l 53 52
l 53 71
l 54 53
l 54 55
l 56 10
l 56 12
l 57 58
l 58 59
l 60 59
l 61 57
l 61 60
l 62 64
l 63 37
l 63 62
l 63 64
l 65 42
l 65 66
l 65 67
l 66 44
l 66 67
l 68 69
l 68 70
l 69 47
l 69 70
l 70 49
l 71 72
l 71 73
l 72 54
l 72 73
l 73 52
l 75 74
