v 547601.5915050698 6590703.294486237 63.22003963470459
v 547602.5373416138 6590703.241253567 63.18008354187012
v 547600.9187398148 6590702.539514733 63.15010383605957
v 547603.1305070114 6590702.374635887 63.22003963470459
v 547600.8444228363 6590701.604309511 63.20002582550049
v 547603.0552182388 6590701.452720833 63.230018882751466
v 547601.4604482842 6590700.796496344 63.08007362365723
v 547602.4557566834 6590700.70284791 63.04003646850586
v 547601.2406287384 6590704.348453713 62.6201050567627
v 547603.0297675324 6590704.206840229 62.660468368530275
v 547599.8523478699 6590703.015804005 62.58301570892334
v 547599.8643465233 6590701.326743555 62.52606037139893
v 547600.7268939209 6590700.217543793 62.553216247558595
v 547602.6232056809 6590699.883159471 62.52253082275391
v 547603.8584180069 6590701.059826088 62.62174728393555
v 547604.0567250443 6590702.526219082 62.65338924407959
v 547599.5957989884 6590698.930931819 59.93452289581299
v 547600.061123867 6590698.883940768 60.51212718963623
v 547600.8763876152 6590698.852591229 60.89765575408936
v 547599.3655729485 6590698.961275172 59.33575180053711
v 547599.1856632424 6590698.981345606 58.71791103363037
v 547602.921380539 6590698.674919975 60.80153968811035
v 547604.1487031174 6590698.530091715 58.69612148284912
v 547601.8628354263 6590698.785270286 61.06426837921143
v 547603.6316504669 6590698.595833731 60.20374610900879
v 547603.9085879517 6590698.553671074 59.68554428100586
v 547604.0864148331 6590698.541844499 59.185882835388185
v 547604.1355128479 6590698.902769697 59.17633369445801
v 547603.9576859665 6590698.914596272 59.675995140075685
v 547603.6807484818 6590698.9567589285 60.194196968078614
v 547601.9119329643 6590699.146195483 61.05471923828125
v 547604.1978001785 6590698.891016913 58.68657234191895
v 547602.9704785538 6590699.035845113 60.79199054718018
v 547599.2347607804 6590699.342270804 58.70836284637451
v 547599.4146704865 6590699.32220037 59.326202659606935
v 547600.9254851532 6590699.213516426 60.88810661315918
v 547600.110221405 6590699.244865966 60.502578048706056
v 547599.6448970032 6590699.291856957 59.92497470855713
v 547600.2787065697 6590705.823979092 59.95695903778076
v 547600.7440309715 6590705.776987744 60.534563331604005
v 547601.5592947197 6590705.745638561 60.920090942382814
v 547600.048480053 6590705.854322148 59.35818698883057
v 547599.8685703469 6590705.8743927 58.740347175598146
v 547603.6042885971 6590705.567967129 60.82397487640381
v 547604.8316102219 6590705.423138809 58.71855667114258
v 547602.5457425308 6590705.678317261 61.086703567504884
v 547604.3145575714 6590705.488880825 60.22618129730225
v 547604.5914950562 6590705.446718407 59.707980422973634
v 547604.7693219376 6590705.434891892 59.20831897735596
v 547604.7202239227 6590705.073966694 59.187867431640626
v 547604.5423970413 6590705.085793209 59.6875288772583
v 547604.2654595566 6590705.127955628 60.20573070526123
v 547602.496644516 6590705.317392063 61.06625202178955
v 547604.782512207 6590705.062213612 58.698106079101564
v 547603.5551905823 6590705.207041931 60.803524284362794
v 547599.8194728089 6590705.513467503 58.719895629882814
v 547599.999382515 6590705.49339695 59.33773639678955
v 547601.5101971817 6590705.384713364 60.89963939666748
v 547600.6949334336 6590705.416062546 60.51411178588867
v 547600.2296085549 6590705.463053894 59.93650749206543
v 547594.3381484938 6590705.966374588 50.9652388381958
v 547594.3068570388 6590705.755168152 51.3428514289856
v 547594.2745132935 6590705.535693836 51.75085428237915
v 547594.2281861198 6590705.057816696 52.13928249359131
v 547594.1807597918 6590704.594311428 52.52209451675415
v 547594.1473025721 6590703.915394974 52.885074882507325
v 547594.191005264 6590703.062108708 53.07630184173584
v 547594.200650726 6590702.367984486 52.973482875823976
v 547594.1422009063 6590701.483827782 52.695436267852784
v 547594.1149665234 6590700.969784689 52.29510000228882
v 547594.1214527008 6590700.52800436 51.7877338218689
v 547594.1152362642 6590700.305006457 51.46852114677429
v 547594.1034140927 6590700.153940869 51.00113633155823
v 547598.364947815 6590699.826749277 51.02575090408325
v 547598.3767700386 6590699.977814865 51.49313571929932
v 547598.3829865647 6590700.200812769 51.81234815597534
v 547598.3765001488 6590700.642593098 52.319714336395265
v 547598.4037347031 6590701.156636191 52.72005060195923
v 547598.4621844483 6590702.040792656 52.99809768676758
v 547598.4525389862 6590702.734917355 53.100916652679444
v 547598.4088363838 6590703.588203144 52.90968921661377
v 547598.442293663 6590704.267119599 52.5467088508606
v 547598.4897198868 6590704.730624867 52.16389730453491
v 547598.5360470009 6590705.208502484 51.775469093322755
v 547598.5683908653 6590705.427976322 51.3674662399292
v 547598.5996823502 6590705.6391827585 50.989853410720826
v 547594.8377527785 6590699.266824794 50.99475887298584
v 547595.3833394242 6590699.22658248 51.43285563468933
v 547596.1175952149 6590699.188317013 51.63963535308838
v 547596.7616772843 6590699.127629113 51.427643089294435
v 547597.1765437317 6590699.088662338 51.05266263961792
v 547597.1710946751 6590699.746883464 51.042311935424806
v 547596.7562282276 6590699.785850239 51.41729238510132
v 547596.1121461582 6590699.846538139 51.62928417205811
v 547595.3778903675 6590699.884803605 51.42250493049622
v 547594.8323037219 6590699.92504592 50.98440793037415
v 547595.4582320643 6590706.465867233 51.101195125579835
v 547596.0038187695 6590706.425624085 51.539292125701905
v 547596.7380745602 6590706.387358856 51.746071605682374
v 547597.3821566296 6590706.326670838 51.53407934188843
v 547597.797023077 6590706.287704659 51.159099130630494
v 547597.8024721337 6590705.629483414 51.16944983482361
v 547597.3876056862 6590705.66845007 51.5444305229187
v 547596.7435236168 6590705.729138088 51.75642230987549
v 547596.0092678261 6590705.767403317 51.54964282989502
v 547595.4636811209 6590705.807645989 51.11154606819153
v 547606.7132487488 6590704.551207733 51.052199869155885
v 547607.2588353348 6590704.510965061 51.490296630859376
v 547607.9930911255 6590704.472699833 51.697076110839845
v 547608.6371731949 6590704.412011814 51.48508408546448
v 547609.0520396424 6590704.373045159 51.110103635787965
v 547609.0465903473 6590705.031265927 51.09975293159485
v 547608.6317238999 6590705.070233059 51.474733142852784
v 547607.9876418305 6590705.130921078 51.68672540664673
v 547607.2533860398 6590705.169186306 51.47994568824768
v 547606.7077994538 6590705.209428501 51.04184892654419
v 547606.081870575 6590698.878607702 51.075061826705934
v 547606.6274581146 6590698.8383653285 51.513158588409425
v 547607.3617139054 6590698.800099921 51.719938068389894
v 547608.0057950211 6590698.739411962 51.50794604301453
v 547608.4206624222 6590698.700445187 51.132965593338014
v 547608.4261107636 6590698.042224069 51.14331653594971
v 547608.0112443161 6590698.081190866 51.51829698562622
v 547607.3671622467 6590698.141878811 51.73028877258301
v 547606.632906456 6590698.180144233 51.52350953102112
v 547606.08731987 6590698.220386607 51.08541253089905
v 547609.9692492676 6590704.382744503 50.99050715446472
v 547609.9379582596 6590704.171538067 51.3681199836731
v 547609.9056143952 6590703.952064228 51.77612283706665
v 547609.8592868042 6590703.474186611 52.16455104827881
v 547609.8118605805 6590703.010681343 52.54736259460449
v 547609.7784037781 6590702.331764889 52.91034296035767
v 547609.8221059036 6590701.478479099 53.10157039642334
v 547609.8317513657 6590700.784354639 52.998751430511476
v 547609.7733016205 6590699.900197935 52.720704345703126
v 547609.746067543 6590699.386154962 52.32036808013916
v 547609.7525534821 6590698.944374573 51.81300189971924
v 547609.7463374329 6590698.72137661 51.493789463043214
v 547609.7345147324 6590698.570311022 51.02640464782715
v 547605.8629813385 6590698.936502648 51.001790075302125
v 547605.8748030853 6590699.087568236 51.46917489051819
v 547605.8810200882 6590699.310566139 51.788387565612794
v 547605.8745341492 6590699.752346587 52.295753746032716
v 547605.9017682266 6590700.266389561 52.69609001159668
v 547605.9602179718 6590701.150546265 52.97413661956787
v 547605.9505725098 6590701.844670725 53.07695558547974
v 547605.9068694306 6590702.697956753 52.88572862625122
v 547605.9403271866 6590703.376873207 52.52274826049805
v 547605.9877534104 6590703.840378475 52.139936237335206
v 547606.0340810013 6590704.318255615 51.75150802612305
v 547606.0664239121 6590704.537729931 51.34350517272949
v 547606.0977158737 6590704.74893589 50.9658925819397
v 547602.8260312271 6590699.630902362 61.88601043701172
v 547604.1693835449 6590700.676443529 62.009780197143556
v 547604.6038050842 6590702.291639996 62.035733489990236
v 547604.0563445282 6590703.981329155 61.8516495513916
v 547602.6334347916 6590704.916224671 61.94478633880615
v 547600.9188413811 6590704.7614748 61.76509693145752
v 547599.6633877945 6590703.574512196 61.709917335510255
v 547599.2854886246 6590701.688212586 61.73586109161377
v 547600.0779762459 6590700.242258978 61.725070266723634
v 547601.5701847267 6590699.475072813 61.74903514862061
v 547599.1870637131 6590705.260371399 58.76885917663574
v 547599.168428917 6590704.977402878 59.5207283782959
v 547599.1361484719 6590704.435424996 60.218536643981935
v 547599.1396651459 6590703.818698597 60.768287925720216
v 547599.1187524986 6590703.002354336 61.09975078582764
v 547599.048234005 6590702.197936726 61.13818958282471
v 547598.9585714531 6590701.3478202345 60.841084747314454
v 547598.8668403816 6590700.664455605 60.275903968811036
v 547598.8257703972 6590700.213502598 59.690731315612794
v 547598.7856788826 6590699.845702362 58.75288417816162
v 547598.5395975304 6590699.866923762 58.76563766479492
v 547598.5796885681 6590700.234723997 59.703484802246095
v 547598.6207585526 6590700.685677004 60.28865745544434
v 547598.712489624 6590701.369041634 60.853838233947755
v 547598.8021521759 6590702.2191583635 61.15094306945801
v 547598.8726706696 6590703.023575974 61.11250427246094
v 547598.8935833168 6590703.839920235 60.78104141235352
v 547598.8900671196 6590704.4566461565 60.231290130615236
v 547598.9223475647 6590704.998624516 59.5334818649292
v 547598.940981884 6590705.281593037 58.781612663269044
v 547604.832869072 6590704.6572353365 58.680954246521
v 547604.8142342758 6590704.374266815 59.43282344818115
v 547604.7819543076 6590703.832288933 60.13063171386719
v 547604.7854705048 6590703.2155625345 60.68038299560547
v 547604.7645583344 6590702.36921854 61.0418465423584
v 547604.694038887 6590701.594800663 61.05028465270996
v 547604.6043772888 6590700.744684172 60.75317981719971
v 547604.5126462174 6590700.061319542 60.18799903869629
v 547604.4715762329 6590699.610366416 59.60282638549805
v 547604.4314847183 6590699.2425663 58.66497829437256
v 547604.6775660706 6590699.221344781 58.65222480773926
v 547604.7176575852 6590699.589145017 59.59007289886475
v 547604.7587275696 6590700.040098143 60.17524555206299
v 547604.8504586411 6590700.723462773 60.74042633056641
v 547604.940121193 6590701.573579264 61.03753116607666
v 547605.0106396866 6590702.347996903 61.0290930557251
v 547605.031551857 6590703.194341374 60.66762950897217
v 547605.0280356598 6590703.811067295 60.11787822723389
v 547605.0603156281 6590704.3530456545 59.42006996154785
v 547605.0789504242 6590704.636014176 58.6682007598877
v 547604.8806567383 6590698.392728579 58.456403999328614
v 547599.3251328659 6590705.882049275 58.49832656860352
v 547605.8079142761 6590705.245412541 58.51386859893799
v 547605.8754925919 6590704.336078835 58.62177589416504
v 547601.3936114502 6590703.179029179 63.699708251953126
v 547602.9289078903 6590702.970739556 63.73982551574707
v 547602.8003659439 6590701.707550717 63.62163475036621
v 547601.2069969368 6590701.919710827 63.630215911865236
v 547598.3366527748 6590699.4046943905 58.46547821044922
v 547598.6430039597 6590699.019541097 58.525556831359864
l 1 3
l 2 1
l 3 5
l 4 2
l 4 16
l 5 7
l 5 12
l 6 4
l 6 15
l 7 8
l 7 13
l 8 6
l 8 14
l 9 1
l 9 10
l 10 2
l 11 3
l 11 9
l 12 11
l 13 12
l 14 13
l 14 15
l 15 16
l 16 10
l 17 18
l 17 20
l 19 18
l 20 21
l 21 173
l 22 25
l 23 193
l 24 19
l 24 22
l 25 26
l 26 27
l 27 23
l 28 27
l 28 29
l 28 32
l 29 26
l 30 25
l 30 29
l 31 24
l 31 33
l 32 23
l 32 192
l 33 22
l 33 30
l 33 189
l 34 21
l 35 20
l 35 34
l 35 38
l 36 19
l 36 31
l 36 162
l 37 18
l 37 36
l 37 38
l 37 161
l 38 17
l 39 40
l 39 42
l 39 60
l 41 40
l 42 43
l 42 57
l 43 56
l 43 182
l 44 46
l 44 55
l 45 49
l 46 41
l 47 44
l 47 48
l 48 49
l 48 51
l 50 49
l 50 51
l 52 47
l 52 51
l 52 55
l 52 185
l 53 46
l 53 58
l 54 45
l 54 50
l 55 53
l 56 163
l 57 56
l 57 60
l 57 181
l 58 41
l 58 59
l 58 158
l 59 40
l 59 60
l 60 165
l 62 61
l 63 62
l 64 63
l 64 65
l 66 65
l 66 67
l 68 67
l 68 79
l 69 68
l 69 70
l 69 78
l 70 77
l 71 70
l 71 76
l 72 71
l 72 75
l 73 72
l 73 96
l 74 75
l 76 75
l 77 76
l 78 77
l 79 78
l 80 67
l 80 79
l 81 66
l 81 80
l 81 82
l 82 65
l 82 83
l 83 64
l 83 84
l 84 63
l 84 85
l 85 62
l 85 86
l 86 61
l 88 87
l 89 88
l 89 90
l 91 90
l 92 74
l 92 91
l 92 93
l 93 90
l 93 94
l 94 89
l 95 88
l 95 94
l 95 96
l 96 87
l 97 98
l 97 106
l 98 99
l 99 100
l 100 101
l 101 100
l 102 101
l 102 103
l 103 100
l 103 102
l 103 104
l 104 99
l 104 105
l 105 98
l 105 106
l 107 108
l 107 116
l 108 109
l 108 115
l 109 110
l 109 114
l 110 111
l 111 112
l 112 113
l 113 110
l 113 114
l 114 115
l 115 116
l 117 118
l 117 126
l 118 119
l 118 125
l 119 120
l 119 124
l 120 121
l 120 123
l 121 122
l 121 139
l 122 123
l 123 124
l 124 125
l 125 126
l 127 128
l 127 152
l 128 129
l 128 151
l 129 150
l 130 129
l 130 131
l 130 149
l 131 130
l 131 148
l 132 131
l 132 133
l 132 147
l 133 134
l 133 146
l 134 135
l 134 145
l 135 136
l 135 144
l 136 137
l 137 138
l 137 142
l 138 139
l 138 141
l 140 117
l 140 141
l 141 142
l 142 143
l 143 136
l 143 144
l 144 145
l 145 146
l 146 147
l 147 148
l 148 149
l 149 150
l 150 151
l 151 152
l 153 14
l 153 33
l 153 154
l 154 15
l 154 155
l 155 16
l 155 156
l 155 188
l 156 10
l 156 55
l 156 157
l 156 186
l 157 9
l 157 53
l 157 158
l 158 9
l 158 159
l 159 11
l 159 160
l 159 166
l 160 12
l 160 161
l 160 168
l 161 13
l 161 162
l 161 169
l 162 14
l 162 153
l 163 164
l 164 165
l 165 166
l 166 59
l 166 167
l 167 168
l 168 169
l 169 170
l 170 37
l 170 171
l 171 38
l 172 34
l 172 171
l 173 172
l 173 174
l 173 211
l 174 171
l 174 175
l 175 170
l 175 176
l 176 169
l 177 168
l 177 176
l 177 178
l 178 167
l 178 179
l 179 166
l 179 180
l 180 165
l 180 181
l 181 164
l 181 182
l 182 163
l 183 54
l 183 184
l 183 202
l 184 51
l 184 185
l 184 201
l 185 186
l 185 200
l 186 187
l 186 199
l 187 156
l 187 188
l 187 198
l 188 189
l 188 197
l 189 154
l 189 190
l 189 196
l 190 191
l 190 195
l 191 192
l 191 194
l 192 193
l 193 194
l 194 195
l 195 196
l 196 197
l 197 198
l 198 199
l 199 200
l 200 201
l 201 202
l 202 45
l 203 23
l 203 193
l 204 43
l 204 182
l 205 45
l 206 202
l 206 205
l 208 207
l 208 209
l 210 207
l 210 209
l 211 212
l 212 21
