v 549985.3745074045 6595209.548621336 32.48201743900197
v 549987.7192258608 6595210.1189586315 32.49544565021413
v 549987.9093388092 6595209.168397108 32.749300044173175
v 549993.3592245352 6595210.499182859 32.79260687171834
v 549985.6913614046 6595208.0910936985 32.893913906210834
v 549982.8396768343 6595207.330643574 32.897007864111835
v 549988.1628218662 6595197.95176951 33.423510354155475
v 549990.1906860244 6595198.39536492 33.50840280591863
v 549990.444169141 6595197.444803396 33.51962683736699
v 549984.6140584719 6595200.866825024 33.52938882648366
v 549996.1475391161 6595198.775589624 33.551997345084125
v 549987.2756306898 6595201.56390349 33.592872183913165
v 549989.1767542135 6595202.704577843 33.85198394595998
v 549988.9866419208 6595203.591768676 34.46542076408284
v 549990.1906860244 6595198.39536492 34.469939377302104
v 549984.2338337671 6595202.324353257 34.50311290859597
v 549991.0778767836 6595198.522106806 34.57256970941442
v 549993.0423705351 6595199.02907292 34.585979562395984
v 549995.8940562975 6595199.726151148 34.662742715472156
v 549994.8167533648 6595204.415588239 34.72535444437879
v 549989.1767542135 6595202.704577843 34.72766546546834
v 549995.8940562975 6595199.726151148 35.06342534362691
v 549993.0423705351 6595199.02907292 35.822624247664386
v 549991.0778767836 6595198.522106806 35.83981577693837
v 549990.697652198 6595199.979634443 36.17910126983541
v 549992.7255167734 6595200.423229853 36.24320499240773
v 549989.7470911067 6595200.486600557 37.02254180251973
v 549995.3870901834 6595201.944128672 37.042592566603595
l 1 2
l 1 5
l 5 6
l 23 24
l 23 26
l 24 25
l 11 19
l 14 16
l 25 26
l 14 21
l 27 28
l 12 13
l 7 8
l 15 17
l 2 3
l 7 12
l 15 27
l 6 16
l 17 19
l 8 13
l 3 4
l 17 25
l 18 22
l 18 26
l 9 11
l 9 15
l 13 14
l 20 21
l 20 28
l 10 12
l 21 27
l 10 16
l 22 28
l 4 20
