v 543426.3437506966 6581211.91960921 45.575235888874936
v 543428.6237807088 6581209.0563160395 45.653136536992
v 543424.1167456023 6581212.502872131 45.69740383378308
v 543425.2832720093 6581211.0182024455 45.77531664124768
v 543421.3595011048 6581210.222843311 45.87231127969067
v 543422.579052072 6581199.512008808 45.894390330231595
v 543416.9585151486 6581206.670239232 45.90012423745434
v 543418.072017651 6581205.2916174745 45.90393625251095
v 543427.4042300992 6581208.313981197 45.91942291013043
v 543429.8433308415 6581205.344641409 45.95925675383847
v 543425.9195592217 6581210.328891418 45.96799002639096
v 543419.397615891 6581207.995837591 46.04417590848248
v 543421.8897404484 6581209.904699943 46.071850106633114
v 543418.072017651 6581205.2916174745 46.179804966366696
v 543422.3139324002 6581209.0563160395 46.20443336716931
v 543421.3595011048 6581210.222843311 46.267999634659695
v 543421.8897404484 6581209.904699943 46.369755730545926
v 543419.1324963383 6581206.458143524 46.95404244265597
v 543423.3213870637 6581209.904699943 46.957570843911576
v 543420.4050705247 6581205.132545671 46.985425070441174
v 543424.4879131131 6581208.420029066 47.02631683698933
v 543427.4042300992 6581208.313981197 48.36705212346356
v 543420.2459986024 6581202.481348655 48.38430254212658
l 1 2
l 1 4
l 15 21
l 22 23
l 1 11
l 4 21
l 10 22
l 7 18
l 4 22
l 8 14
l 2 9
l 8 20
l 8 23
l 5 7
l 9 11
l 12 20
l 5 15
l 16 19
l 13 15
l 13 16
l 3 4
l 3 5
l 6 10
l 18 20
l 19 21
l 3 19
l 15 17
l 14 18
l 15 16
l 14 23
l 4 11
l 6 23
l 7 8
