v 543426.3967745118 6581211.91960921 45.56394545785229
v 543428.6768045239 6581209.003292224 45.58762769452374
v 543424.8060567193 6581211.813561103 45.65334694138806
v 543417.0115389638 6581206.723263166 45.77790252915661
v 543419.7687833123 6581208.791196487 45.79629008523266
v 543420.9883336835 6581209.745628021 45.798725888646054
v 543425.3362959437 6581211.071226261 45.8004616951112
v 543427.6693498902 6581208.207933328 45.82388906232159
v 543429.8963546567 6581205.344641409 45.82456593266766
v 543422.579052072 6581199.512008808 45.838148639119076
v 543417.9129457287 6581205.503713152 45.848126695073056
v 543423.7455780897 6581212.131704948 45.89032678357403
v 543420.3520467095 6581205.185569546 46.944094792521405
v 543419.1855201535 6581206.511167458 46.96779601327221
v 543423.4274349026 6581209.798652074 46.99964062175791
v 543424.5409370475 6581208.473052881 47.01171697727482
v 543420.2459986024 6581202.481348655 48.30884198895733
v 543427.4042300992 6581208.313981197 48.333364531910824
l 1 2
l 9 18
l 1 7
l 10 17
l 11 13
l 11 17
l 2 8
l 12 15
l 13 14
l 15 16
l 3 7
l 17 18
l 3 12
l 3 16
l 4 5
l 4 11
l 4 14
l 5 6
l 5 13
l 5 14
l 6 12
l 6 15
l 6 16
l 7 8
l 7 18
l 9 10
