v 535716.8133152089 6581682.239271673 50.39296406797874
v 535722.0748379639 6581680.861254248 50.403555574936746
v 535722.9517581871 6581683.492015394 50.71539110235679
v 535717.3144125751 6581684.368936094 50.80306738905418
v 535710.5495980195 6581695.518352556 50.91363829664695
v 535710.1737749985 6581694.015061292 50.96900028280723
v 535703.1584113053 6581700.5293264715 51.32500523619163
v 535702.1562169007 6581695.894175622 51.43248027853477
v 535703.9100573472 6581703.410638365 51.483344498200296
v 535704.1606066636 6581704.538107428 51.72740739874351
v 535723.703404229 6581683.867838415 53.12226754717338
v 535715.0594753436 6581689.004086527 53.151310506386636
v 535716.1869444362 6581694.140335712 53.18411535315025
v 535718.4418816975 6581702.157892737 53.21580475859153
v 535708.1693852356 6581695.894175622 53.21767711929786
v 535727.4616368226 6581700.153503451 53.31171220831382
v 535718.1913329771 6581701.280972513 53.37566066078651
v 535710.8001463822 6581703.034813437 53.51623398355949
v 535703.9100573472 6581703.410638365 54.02708305708873
v 535703.1584113053 6581700.5293264715 54.08001536421287
v 535717.8155099562 6581688.252440485 54.746151748223184
v 535717.1891382745 6581685.74695352 54.789058092160104
v 535706.290270131 6581699.902954611 54.82921368174064
v 535706.6660931519 6581702.658990416 54.83373636297691
v 535708.1693852356 6581700.779875311 55.130779328865884
v 535719.9451737812 6581698.149113926 55.145570817513345
v 535715.9363957456 6581699.151308569 55.33823436789024
v 535719.9451737812 6581697.146919045 55.358641925377725
v 535715.6858470252 6581698.149113926 55.41855317644584
v 535706.0397208146 6581695.017256114 55.4509729772042
v 535708.2946589402 6581703.661187681 55.51130861334312
v 535719.068253558 6581685.245855841 55.66880756906974
v 535722.9517581871 6581701.155698332 55.705820622963785
l 1 2
l 1 4
l 32 33
l 9 24
l 11 32
l 22 32
l 12 13
l 23 24
l 12 21
l 16 33
l 17 18
l 5 6
l 2 3
l 17 26
l 5 15
l 10 31
l 7 8
l 18 25
l 13 15
l 18 31
l 7 23
l 25 27
l 19 20
l 19 24
l 26 27
l 26 28
l 13 28
l 3 4
l 27 29
l 14 17
l 20 23
l 28 29
l 6 30
l 21 22
l 14 33
l 8 30
l 11 16
l 9 10
l 30 31
l 15 25
